<svg id="Capa_1" enable-background="new 0 0 511.543 511.543" fill="#ffffff" viewBox="0 0 512 512" width="60" height="60" xmlns="http://www.w3.org/2000/svg"><g><path d="m243.269 324.046c24.427 0 48.538-6.407 70.26-18.948 32.611-18.828 55.939-49.229 65.685-85.602s4.744-74.365-14.084-106.977-49.229-55.939-85.603-65.686c-36.373-9.746-74.365-4.745-106.977 14.084-67.32 38.868-90.468 125.259-51.6 192.579 18.828 32.612 49.229 55.939 85.603 65.685 12.145 3.255 24.47 4.865 36.716 4.865zm-109.329-78.05c-16.825-29.142-21.294-63.091-12.585-95.594s29.555-59.669 58.696-76.495c19.413-11.208 40.954-16.932 62.784-16.932 10.941 0 21.959 1.439 32.811 4.347 32.503 8.709 59.669 29.555 76.495 58.696 16.825 29.142 21.294 63.091 12.585 95.594s-29.555 59.669-58.696 76.494c-29.142 16.826-63.092 21.297-95.594 12.585-32.505-8.708-59.671-29.552-76.496-58.695z"/><path d="m445.725 449.921c-.036-.062-.072-.122-.109-.183l-8.606-13.981c-2.171-3.528-6.792-4.628-10.318-2.455-3.527 2.171-4.626 6.791-2.455 10.318l8.547 13.885c7.067 12.354 2.844 28.232-9.452 35.439-6.046 3.546-13.106 4.505-19.882 2.705-6.773-1.801-12.425-6.14-15.914-12.219-.036-.063-.073-.124-.11-.186l-48.877-79.756 44.997-25.975c.028.048.056.096.085.142l22.78 37.006c2.17 3.527 6.791 4.627 10.318 2.455 3.527-2.171 4.626-6.791 2.455-10.318l-22.725-36.918c-4.234-7.309-9.563-13.88-15.841-19.532l-24.553-23.108c31.241-24.307 53.643-57.935 64.066-96.836 12.649-47.208 6.158-96.516-18.279-138.841-24.436-42.325-63.892-72.601-111.1-85.251-47.209-12.647-96.517-6.157-138.842 18.28-42.326 24.437-72.602 63.893-85.25 111.101-12.65 47.207-6.159 96.515 18.278 138.841 16.362 28.341 39.993 51.781 68.338 67.785 3.607 2.033 8.182.763 10.218-2.844 2.037-3.607.764-8.182-2.843-10.219-26.011-14.686-47.701-36.202-62.723-62.223-22.433-38.855-28.393-84.122-16.78-127.459s39.406-79.56 78.262-101.993c38.855-22.434 84.121-28.394 127.459-16.78 43.338 11.612 79.56 39.406 101.993 78.262s28.393 84.122 16.78 127.459c-11.612 43.338-39.406 79.56-78.262 101.993-41.001 23.671-90.383 28.927-135.481 14.417-3.944-1.272-8.168.899-9.437 4.843s.899 8.168 4.843 9.437c18.262 5.875 37.169 8.775 56.012 8.775 22.241 0 44.388-4.054 65.286-12.01l7.876 33.397c1.764 8.298 4.81 16.229 9.052 23.576.033.057.066.113.101.169l48.95 79.875c5.5 9.525 14.379 16.324 25.015 19.151 3.517.935 7.081 1.397 10.623 1.397 7.206-.001 14.313-1.915 20.705-5.661 19.403-11.374 26.043-36.478 14.8-55.96zm-71.179-84.531-42.002 24.246c-.938-2.819-8.841-37.271-9.798-41.045l21.148-12.207c.168.156 29.37 27.639 30.652 29.006z"/></g></svg>