<svg id="Capa_1" enable-background="new 0 0 512 512" fill="#ffffff" viewBox="0 0 512 512" width="60" height="60" xmlns="http://www.w3.org/2000/svg">
  <g>
    <path d="m437.02 74.98c-48.353-48.351-112.64-74.98-181.02-74.98-37.678 0-73.974 7.999-107.878 23.774-3.755 1.747-5.383 6.208-3.636 9.964 1.748 3.755 6.207 5.386 9.964 3.636 31.908-14.847 66.074-22.374 101.55-22.374 132.888 0 241 108.112 241 241s-108.112 241-241 241-241-108.112-241-241c0-81.88 41.032-157.456 109.761-202.166 3.472-2.259 4.456-6.905 2.197-10.377s-6.904-4.455-10.376-2.197c-73 47.489-116.582 127.765-116.582 214.74 0 68.38 26.629 132.668 74.98 181.02 48.353 48.351 112.64 74.98 181.02 74.98s132.667-26.629 181.02-74.98c48.351-48.352 74.98-112.64 74.98-181.02s-26.629-132.668-74.98-181.02z"/>
    <path d="m431.646 248.375h28.804c4.234.091 7.879-3.829 7.48-8.046-3.702-50.766-25.634-98.594-61.756-134.675-36.125-36.084-83.983-57.962-134.76-61.604-4.217-.398-8.124 3.251-8.037 7.479l-.008 38.089c-.001 4.203-3.421 7.623-7.632 7.623-4.204 0-7.624-3.42-7.625-7.623l-.007-38.051c.088-4.238-3.831-7.88-8.055-7.478-50.662 3.761-98.394 25.688-134.404 61.743-36.013 36.058-57.882 83.822-61.577 134.496-.399 4.217 3.247 8.137 7.48 8.046h27.808c4.205 0 7.625 3.421 7.625 7.625s-3.42 7.625-7.625 7.625h-27.808c-4.234-.091-7.879 3.829-7.48 8.046 3.695 50.675 25.565 98.441 61.581 134.5 36.013 36.055 83.747 57.981 134.411 61.74 4.218.404 8.147-3.242 8.055-7.479v-28.048c0-4.204 3.42-7.625 7.625-7.625s7.625 3.421 7.625 7.625v28.085c-.095 4.228 3.832 7.878 8.036 7.48 37.085-2.657 72.948-15.088 103.712-35.947 3.429-2.325 4.323-6.989 1.999-10.417s-6.989-4.323-10.417-1.998c-26.357 17.871-56.741 29.084-88.331 32.658v-19.861c0-12.476-10.149-22.625-22.625-22.625s-22.625 10.149-22.625 22.625v19.803c-90.374-10.493-162.96-83.171-173.332-173.562h19.573c12.476 0 22.625-10.149 22.625-22.625s-10.149-22.625-22.625-22.625h-19.572c10.371-90.386 82.954-163.063 173.323-173.56l.006 29.807c.003 12.472 10.152 22.619 22.632 22.619 12.473 0 22.622-10.147 22.625-22.619l.006-29.866c90.639 10.283 163.447 82.994 173.84 173.619h-20.57c-12.476 0-22.625 10.149-22.625 22.625s10.149 22.625 22.625 22.625h20.572c-5.204 45.549-26.122 87.85-59.435 119.842-2.988 2.869-3.084 7.616-.215 10.604 2.87 2.986 7.616 3.083 10.604.214 37.945-36.44 60.943-85.313 64.758-137.614.399-4.217-3.247-8.137-7.48-8.046h-28.804c-4.205 0-7.625-3.421-7.625-7.625s3.421-7.624 7.625-7.624z"/><path d="m292 196c0-19.851-16.149-36-36-36s-36 16.149-36 36 16.149 36 36 36 36-16.149 36-36zm-57 0c0-11.579 9.42-21 21-21s21 9.421 21 21-9.42 21-21 21-21-9.421-21-21z"/><path d="m371 189c0-17.645-14.355-32-32-32s-32 14.355-32 32 14.355 32 32 32 32-14.355 32-32zm-49 0c0-9.374 7.626-17 17-17s17 7.626 17 17-7.626 17-17 17-17-7.626-17-17z"/><path d="m172 221c17.645 0 32-14.355 32-32s-14.355-32-32-32-32 14.355-32 32 14.355 32 32 32zm0-49c9.374 0 17 7.626 17 17s-7.626 17-17 17-17-7.626-17-17 7.626-17 17-17z"/><path d="m133.833 274.499c1.239-3.953-.96-8.161-4.913-9.4-3.954-1.242-8.161.96-9.4 4.912-3.34 9.159-2.424 22.825-2.521 32.489 0 13.51 11.294 24.5 25.176 24.5h50.839c.317 14.941 12.561 27 27.576 27h70.818c15.015 0 27.259-12.059 27.576-27h49.839c13.883 0 25.177-10.99 25.177-24.5v-16c0-30.603-24.777-55.5-55.233-55.5h-.496c-17.858 0-34.529 8.924-44.684 23.352-10.44-7.755-23.361-12.352-37.337-12.352h-.501c-14.268 0-27.431 4.795-37.984 12.847-10.107-14.738-26.898-23.847-45.036-23.847h-.496c-9.609 0-19.107 2.573-27.466 7.44-3.58 2.085-4.792 6.676-2.708 10.256 2.084 3.579 6.677 4.791 10.255 2.707 6.07-3.535 12.958-5.403 19.918-5.403h.496c14.031 0 26.94 7.556 34.063 19.564-8.618 10.746-13.791 24.37-13.791 39.185v7.251h-50.824c-5.611 0-10.176-4.262-10.176-9.5.188-7.709-.867-20.727 1.833-28.001zm204.438-28.499h.496c22.185 0 40.233 18.168 40.233 40.5v16c0 5.238-4.565 9.5-10.176 9.5h-49.824v-7.251c0-15.143-5.392-29.05-14.357-39.903 7.213-11.575 19.937-18.846 33.628-18.846zm-82.021 11c26.329 0 47.75 21.42 47.75 47.749v21.66c0 6.942-5.648 12.591-12.591 12.591h-70.818c-6.942 0-12.591-5.648-12.591-12.591v-21.66c0-26.329 21.42-47.749 47.75-47.749z"/></g></svg>