<svg id="Capa_1" enable-background="new 0 0 511.502 511.502" fill="#ffffff" viewBox="0 0 512 512" width="60" height="60" xmlns="http://www.w3.org/2000/svg"><path d="m475.659 134.685c-4.744-8.499-17.979-.858-12.992 7.498 22.135 38.354 33.834 82.171 33.834 126.717 0 56.86-19.193 112.245-54.198 156.813l-14.279-11.982c-.011-.009-.02-.019-.03-.028l-40.101-33.646-34.914-29.296c17.482-23.575 27.035-52.361 27.035-81.861 0-36.606-14.229-71.049-40.063-96.981-24.063-24.153-55.544-38.267-89.321-40.2v-116.594c75.987 2.347 145.908 37.918 192.763 98.361 5.854 7.781 17.928-1.589 11.855-9.189-24.549-31.669-56.396-57.889-92.099-75.823-37.443-18.81-77.819-28.389-120.007-28.472-4.034-.088-7.595 3.466-7.515 7.5v18.905c-62.19 1.744-120.4 26.775-164.572 70.948-45.82 45.819-71.054 106.742-71.054 171.545 0 42.594 11.193 84.485 32.369 121.146.001.002.003.005.004.008 12.592 21.805 28.446 41.467 47.124 58.439 3.064 2.785 7.809 2.559 10.595-.507 2.785-3.065 2.559-7.809-.507-10.595-15.671-14.24-29.226-30.499-40.364-48.405l57.627-33.271 20.565-11.873c28.144 43.576 80.544 68.111 132.236 61.419l15.678 88.903c-10.801 1.552-21.777 2.337-32.726 2.337-45.221 0-88.907-13.228-126.338-38.252-3.441-2.3-8.101-1.376-10.403 2.067s-1.377 8.101 2.067 10.403c39.905 26.679 86.475 40.781 134.674 40.781 14.335 0 28.717-1.264 42.746-3.755.005-.001.01-.002.015-.003 53.518-9.521 102.463-37.05 138.648-77.796l14.494 12.161c3.048 2.657 8.052 2.21 10.578-.938 40.25-48.211 62.417-109.392 62.417-172.271.001-47.172-12.393-93.583-35.841-134.213zm-185.563 356.854-15.683-88.932c10.424-2.47 20.521-6.158 30.104-11.002 8.751-4.263 1.851-17.906-6.768-13.387-95.819 50.026-207.64-47.62-170.877-149.316 3.312-9.152-11.134-14.142-14.178-4.898-4.979 14.409-7.504 29.515-7.504 44.896 0 21.577 5.074 42.84 14.73 61.947l-43.406 25.061-34.794 20.088c-17.503-32.784-26.72-69.647-26.72-107.096 0-123.163 98.345-223.791 220.627-227.495v90.263c-42.078 2.145-81.135 23.6-105.528 58.313-5.713 7.884 6.8 16.668 12.273 8.625 22.931-32.633 60.4-52.115 100.229-52.115h.495c67.225.267 121.915 55.18 121.915 122.41 0 28.506-10.01 56.261-28.187 78.152-3.646 4.393-7.638 8.569-11.863 12.414-7.295 6.447 2.997 17.747 10.096 11.094 2.885-2.625 5.672-5.388 8.334-8.259l69.135 58.01c-32.251 36.182-75.249 61.197-122.43 71.227z"/></svg>